# xmcd CD database file
#
# Track frame offsets:
#	150
#	18527
#	48483
#	72409
#	96606
#	126311
#	159145
#	182660
#	203830
#	227705
#	259948
#
# Disc length: 3855 seconds
#
# Revision: 0
# Processed by: cddbd v1.5.2PL0 Copyright (c) Steve Scherf et al.
# Submitted via: CDex 1.70beta2
#
DISCID=9c0f0d0b
DTITLE=Zjaca - Zanchini - The Way We Talk
DYEAR=2011
DGENRE=Jazz
TTITLE0=Pippo
TTITLE1=Twilight Time Again
TTITLE2=Kandinsky Night (for Miroslav Vitous)
TTITLE3=One Mind Temple
TTITLE4=Frida Is Vanished
TTITLE5=Morgagni Est
TTITLE6=La Stanza Di Arturo
TTITLE7=The Forest Of Love
TTITLE8=Adam And Eva
TTITLE9=A Friend For Life
TTITLE10=Out Of Body
EXTD=YEAR: 2011
EXTT0=
EXTT1=
EXTT2=
EXTT3=
EXTT4=
EXTT5=
EXTT6=
EXTT7=
EXTT8=
EXTT9=
EXTT10=
PLAYORDER=
